<?xml version="1.0" encoding="UTF-8" standalone="no"?>
<!-- Created with Inkscape (http://www.inkscape.org/) -->

<svg
   width="49.687496mm"
   height="28.96954mm"
   viewBox="0 0 49.687499 28.96954"
   version="1.1"
   id="svg22467"
   sodipodi:docname="autobloomer_pcb_logo.svg"
   inkscape:version="1.1.1 (c3084ef, 2021-09-22)"
   inkscape:export-filename="/Users/philip/Desktop/autobloomer.png"
   inkscape:export-xdpi="96"
   inkscape:export-ydpi="96"
   xmlns:inkscape="http://www.inkscape.org/namespaces/inkscape"
   xmlns:sodipodi="http://sodipodi.sourceforge.net/DTD/sodipodi-0.dtd"
   xmlns="http://www.w3.org/2000/svg"
   xmlns:svg="http://www.w3.org/2000/svg">
  <sodipodi:namedview
     id="namedview22469"
     pagecolor="#000000"
     bordercolor="#eeeeee"
     borderopacity="1"
     inkscape:pageshadow="0"
     inkscape:pageopacity="0"
     inkscape:pagecheckerboard="0"
     inkscape:document-units="mm"
     showgrid="false"
     inkscape:zoom="4.4017801"
     inkscape:cx="74.288127"
     inkscape:cy="68.381426"
     inkscape:window-width="1800"
     inkscape:window-height="1044"
     inkscape:window-x="0"
     inkscape:window-y="44"
     inkscape:window-maximized="1"
     inkscape:current-layer="layer1"
     fit-margin-top="5"
     fit-margin-left="5"
     fit-margin-right="5"
     fit-margin-bottom="5"
     inkscape:object-paths="true"
     showguides="false"
     inkscape:guide-bbox="true"
     inkscape:snap-object-midpoints="true"
     inkscape:snap-midpoints="true"
     inkscape:snap-global="true"
     showborder="false">
    <sodipodi:guide
       position="-35.742102,14.644333"
       orientation="-0.8660254,-0.5"
       id="guide33757"
       inkscape:label=""
       inkscape:locked="false"
       inkscape:color="rgb(0,0,255)" />
    <sodipodi:guide
       position="-35.742102,14.644333"
       orientation="0.8660254,-0.5"
       id="guide33759"
       inkscape:label=""
       inkscape:locked="false"
       inkscape:color="rgb(0,0,255)" />
  </sodipodi:namedview>
  <defs
     id="defs22464" />
  <g
     inkscape:label="Layer 1"
     inkscape:groupmode="layer"
     id="layer1"
     transform="translate(-138.56259,-31.679251)">
    <path
       id="rect23659"
       style="fill:#ffffff;fill-opacity:1;stroke:none;stroke-width:0;stroke-linecap:round;stroke-miterlimit:4;stroke-dasharray:none"
       d="m 162.86431,36.679251 c -0.30026,0 -0.54196,0.241694 -0.54196,0.541955 V 38.1106 a 8.1298193,8.1298193 0 0 0 -2.00411,0.536914 l -0.44463,-0.770081 c -0.15013,-0.260034 -0.48035,-0.348707 -0.74039,-0.198576 l -0.93869,0.541955 c -0.26003,0.150133 -0.34856,0.480499 -0.19843,0.740531 l 0.44476,0.77022 a 8.1298193,8.1298193 0 0 0 -1.46705,1.46706 l -0.77009,-0.444627 c -0.26003,-0.150131 -0.5904,-0.06174 -0.74053,0.198296 l -0.54195,0.938688 c -0.15013,0.260035 -0.0616,0.590402 0.19843,0.740532 l 0.77022,0.444627 a 8.1298193,8.1298193 0 0 0 -0.53705,2.003972 h -0.88925 c -0.30026,0 -0.5421,0.241694 -0.5421,0.541956 v 1.08391 c 0,0.30026 0.24184,0.542094 0.5421,0.542094 h 0.88925 a 8.1298193,8.1298193 0 0 0 0.53705,2.003973 l -0.77022,0.444627 c -0.26003,0.15013 -0.34856,0.480219 -0.19843,0.740251 l 0.54209,0.938829 c 0.15013,0.260032 0.48022,0.348567 0.74025,0.198436 l 0.77023,-0.444627 a 8.1298193,8.1298193 0 0 0 1.46705,1.466919 l -0.44463,0.770221 c -0.15013,0.260032 -0.0617,0.59026 0.1983,0.740391 l 0.93883,0.541955 c 0.26003,0.15013 0.59026,0.06174 0.74039,-0.198297 l 0.44463,-0.77022 a 8.1298193,8.1298193 0 0 0 2.00397,0.536913 v 0.889395 c 0,0.300261 0.2417,0.541954 0.54196,0.541954 h 1.08405 c 0.30025,0 0.54195,-0.241693 0.54195,-0.541954 v -0.889395 a 8.1298193,8.1298193 0 0 0 2.00397,-0.536913 l 0.44463,0.770081 c 0.15013,0.260032 0.4805,0.348566 0.74053,0.198436 l 0.93869,-0.541955 c 0.26004,-0.150131 0.34843,-0.480357 0.1983,-0.740391 l -0.44463,-0.770221 a 8.1298193,8.1298193 0 0 0 1.46706,-1.466919 l 0.77008,0.444627 c 0.26003,0.150131 0.5904,0.0616 0.74053,-0.198436 l 0.54196,-0.938689 c 0.15013,-0.260033 0.0616,-0.590261 -0.19844,-0.740391 l -0.77022,-0.444627 a 8.1298193,8.1298193 0 0 0 0.53705,-2.003973 h 0.88926 c 0.30026,0 0.54209,-0.241834 0.54209,-0.542094 v -1.08391 c 0,-0.300262 -0.24183,-0.541956 -0.54209,-0.541956 h -0.88604 a 8.1298193,8.1298193 0 0 0 -0.53719,-2.005793 l 0.76714,-0.442946 c 0.26003,-0.150131 0.34856,-0.480357 0.19844,-0.740392 l -0.5421,-0.938828 c -0.15013,-0.26003 -0.48021,-0.348427 -0.74025,-0.198297 l -0.76756,0.443087 a 8.1298193,8.1298193 0 0 0 -1.46804,-1.46804 l 0.44309,-0.767559 c 0.15013,-0.260035 0.0616,-0.590261 -0.19844,-0.740391 l -0.93883,-0.541955 c -0.26003,-0.150128 -0.59012,-0.06174 -0.74025,0.198296 l -0.44294,0.76728 a 8.1298193,8.1298193 0 0 0 -2.0058,-0.537334 v -0.886033 c 0,-0.300261 -0.2417,-0.541955 -0.54195,-0.541955 z m 0.54195,2.980892 a 6.5038554,6.5038554 0 0 1 6.50388,6.503878 6.5038554,6.5038554 0 0 1 -6.50388,6.503879 6.5038554,6.5038554 0 0 1 -6.50374,-6.503879 6.5038554,6.5038554 0 0 1 6.50374,-6.503878 z" />
    <path
       id="path7559-4"
       style="color:#000000;fill:#ffffff;fill-opacity:1;stroke:none;stroke-width:0;stroke-linecap:round;stroke-miterlimit:4;stroke-dasharray:none;stroke-opacity:1"
       d="m 160.53614,41.597346 c -1.05408,2.897484 0.77841,4.28806 1.90376,4.828646 a 0.69999997,0.69999997 0 0 0 -0.0486,0.255281 0.69999997,0.69999997 0 0 0 0.0103,0.117824 0.5,0.5 0 0 0 -0.006,0.0072 c -0.86685,1.249209 -0.8157,2.677824 -0.67954,3.99614 a 0.5,0.5 0 0 0 0.5488,0.444933 0.5,0.5 0 0 0 0.44494,-0.548804 c -0.131,-1.26829 -0.14664,-2.381898 0.50591,-3.322277 a 0.5,0.5 0 0 0 0.006,-0.0083 0.69999997,0.69999997 0 0 0 0.47956,-0.343649 c 2.86851,1.383443 4.58764,-1.120701 4.91287,-1.711007 -0.56312,-0.370301 -3.25249,-1.782853 -5.14387,0.779282 a 0.69999997,0.69999997 0 0 0 -0.19534,-0.08682 c 0.23765,-1.225663 0.21512,-3.525514 -2.73885,-4.408516 z" />
    <path
       id="path33290"
       style="fill:#ffffff;fill-opacity:1;stroke:none;stroke-width:0;stroke-linecap:round;stroke-miterlimit:4;stroke-dasharray:none;stroke-opacity:1"
       d="m 148.64762,37.369858 a 10.162274,10.162274 0 0 0 -5.08503,8.794163 10.162274,10.162274 0 0 0 5.08503,8.794163 l 0.84689,-1.467094 a 8.4685615,8.4685615 0 0 1 -4.23831,-7.327069 8.4685615,8.4685615 0 0 1 4.23831,-7.327068 z" />
    <path
       id="path33462"
       style="fill:#ffffff;fill-opacity:1;stroke:none;stroke-width:0;stroke-linecap:round;stroke-miterlimit:4;stroke-dasharray:none;stroke-opacity:1"
       d="m 150.34123,40.303171 a 6.7748492,6.7748492 0 0 0 -3.39107,5.86085 6.7748492,6.7748492 0 0 0 3.39107,5.86085 l 0.84671,-1.46657 a 5.0811369,5.0811369 0 0 1 -2.54435,-4.39428 5.0811369,5.0811369 0 0 1 2.54418,-4.39428 z" />
    <path
       id="path33672"
       style="fill:#ffffff;fill-opacity:1;stroke:none;stroke-width:0;stroke-linecap:round;stroke-miterlimit:4;stroke-dasharray:none;stroke-opacity:1"
       d="m 152.03501,43.237185 a 3.3874247,3.3874247 0 0 0 -1.69763,2.926836 3.3874247,3.3874247 0 0 0 1.69763,2.926837 l 0.84672,-1.46622 a 1.6937123,1.6937123 0 0 1 -0.85075,-1.460617 1.6937123,1.6937123 0 0 1 0.85075,-1.460617 z" />
    <path
       id="path33290-4"
       style="fill:#ffffff;fill-opacity:1;stroke:none;stroke-width:0;stroke-linecap:round;stroke-miterlimit:4;stroke-dasharray:none;stroke-opacity:1"
       d="m 178.16505,37.369858 a 10.162274,10.162274 0 0 1 5.08503,8.794163 10.162274,10.162274 0 0 1 -5.08503,8.794163 l -0.84689,-1.467094 a 8.4685615,8.4685615 0 0 0 4.23831,-7.327069 8.4685615,8.4685615 0 0 0 -4.23831,-7.327068 z" />
    <path
       id="path33462-2"
       style="fill:#ffffff;fill-opacity:1;stroke:none;stroke-width:0;stroke-linecap:round;stroke-miterlimit:4;stroke-dasharray:none;stroke-opacity:1"
       d="m 176.47144,40.303171 a 6.7748492,6.7748492 0 0 1 3.39107,5.86085 6.7748492,6.7748492 0 0 1 -3.39107,5.86085 l -0.84671,-1.46657 a 5.0811369,5.0811369 0 0 0 2.54435,-4.39428 5.0811369,5.0811369 0 0 0 -2.54418,-4.39428 z" />
    <path
       id="path33672-7"
       style="fill:#ffffff;fill-opacity:1;stroke:none;stroke-width:0;stroke-linecap:round;stroke-miterlimit:4;stroke-dasharray:none;stroke-opacity:1"
       d="m 174.77766,43.237185 a 3.3874247,3.3874247 0 0 1 1.69763,2.926836 3.3874247,3.3874247 0 0 1 -1.69763,2.926837 l -0.84672,-1.46622 a 1.6937123,1.6937123 0 0 0 0.85075,-1.460617 1.6937123,1.6937123 0 0 0 -0.85075,-1.460617 z" />
  </g>
</svg>
