<?xml version="1.0" encoding="UTF-8" standalone="no"?>
<!-- Created with Inkscape (http://www.inkscape.org/) -->

<svg
   width="210mm"
   height="297mm"
   viewBox="0 0 210 297"
   version="1.1"
   id="svg920"
   inkscape:version="1.1.1 (c3084ef, 2021-09-22)"
   sodipodi:docname="pi_logo.svg"
   xmlns:inkscape="http://www.inkscape.org/namespaces/inkscape"
   xmlns:sodipodi="http://sodipodi.sourceforge.net/DTD/sodipodi-0.dtd"
   xmlns="http://www.w3.org/2000/svg"
   xmlns:svg="http://www.w3.org/2000/svg">
  <sodipodi:namedview
     id="namedview922"
     pagecolor="#505050"
     bordercolor="#eeeeee"
     borderopacity="1"
     inkscape:pageshadow="0"
     inkscape:pageopacity="0"
     inkscape:pagecheckerboard="0"
     inkscape:document-units="mm"
     showgrid="false"
     inkscape:zoom="0.64052329"
     inkscape:cx="158.46418"
     inkscape:cy="501.93335"
     inkscape:window-width="1312"
     inkscape:window-height="969"
     inkscape:window-x="0"
     inkscape:window-y="44"
     inkscape:window-maximized="0"
     inkscape:current-layer="layer1" />
  <defs
     id="defs917" />
  <g
     inkscape:label="Layer 1"
     inkscape:groupmode="layer"
     id="layer1">
    <path
       id="path7124"
       style="fill:#000000;stroke:none;stroke-width:0;stroke-miterlimit:4;stroke-dasharray:none"
       d="m 81.244475,29.652324 c -0.957607,0.02972 -1.988913,0.383468 -3.158464,1.30638 -2.864633,-1.104979 -5.642792,-1.48886 -8.127669,0.760677 -3.834834,-0.497617 -5.082722,0.529364 -6.027539,1.72806 -0.842049,-0.01743 -6.30207,-0.865735 -8.805664,2.869076 -6.292227,-0.744385 -8.280605,3.700958 -6.027539,7.846549 -1.285057,1.98939 -2.616597,3.954787 0.388607,7.747331 -1.063097,2.112304 -0.404133,4.403733 2.10013,7.176823 -0.660891,2.969312 0.638196,5.064352 2.968294,6.697265 -0.435792,4.063355 3.726261,6.426049 4.969206,7.267773 0.477223,2.367672 1.471853,4.601819 6.225977,5.83737 0.784021,3.52851 3.641211,4.137835 6.407877,4.878255 -9.14451,5.315358 -16.986427,12.309121 -16.933333,29.467967 l -1.339453,2.38952 c -10.485667,6.37706 -19.919235,26.87274 -5.167643,43.53223 0.963578,5.2145 2.579578,8.95984 4.018359,13.10514 2.152077,16.7033 16.197164,24.52465 19.901627,25.44961 5.428332,4.13494 11.209915,8.05834 19.033464,10.80657 7.3753,7.60663 15.365378,10.50565 23.399088,10.50065 0.11778,-7e-5 0.23774,0.001 0.35553,0 8.03371,0.005 16.02379,-2.89402 23.39909,-10.50065 7.82355,-2.74823 13.60513,-6.67163 19.03347,-10.80657 3.70446,-0.92496 17.74955,-8.74631 19.90162,-25.44961 1.43878,-4.1453 3.05478,-7.89064 4.01836,-13.10514 14.75159,-16.65949 5.31802,-37.15517 -5.16764,-43.53223 l -1.33945,-2.38952 c 0.0531,-17.158846 -7.78883,-24.152609 -16.93334,-29.467967 2.76667,-0.74042 5.62386,-1.349745 6.40788,-4.878255 4.75412,-1.235551 5.74876,-3.469698 6.22598,-5.83737 1.24294,-0.841724 5.40499,-3.204418 4.9692,-7.267773 2.3301,-1.632913 3.62919,-3.727953 2.9683,-6.697265 2.50426,-2.77309 3.16322,-5.064519 2.10013,-7.176823 3.0052,-3.792544 1.67366,-5.757941 0.3886,-7.747331 2.25307,-4.145591 0.26469,-8.590934 -6.02754,-7.846549 -2.50359,-3.734811 -7.96361,-2.886503 -8.80566,-2.869076 -0.94482,-1.198696 -2.1927,-2.225677 -6.02754,-1.72806 -2.48488,-2.249537 -5.26303,-1.865656 -8.12767,-0.760677 -3.40233,-2.684836 -5.65474,-0.532684 -8.22689,0.28112 -4.12058,-1.346141 -5.06227,0.497657 -7.08587,1.248503 -4.49137,-0.949345 -5.85671,1.117476 -8.01191,3.299023 l -2.50528,-0.04961 c -6.77612,3.993386 -10.14247,12.124663 -11.33574,16.304947 -1.19381,-4.18094 -4.55254,-12.312264 -11.32747,-16.304947 l -2.50527,0.04961 c -2.155208,-2.181547 -3.52055,-4.248369 -8.011918,-3.299023 -2.023595,-0.750846 -2.965292,-2.594644 -7.085873,-1.248503 -1.68797,-0.534059 -3.240264,-1.644234 -5.068424,-1.5875 z m 0.239263,4.79609 c 3.44108,1.27451 5.213622,2.919907 7.07967,4.544425 0.632669,-0.853824 1.607275,-1.479691 0.430464,-3.539835 2.443205,1.408304 4.283474,3.067668 5.644618,4.926831 1.51166,-0.962539 0.900726,-2.278672 0.908987,-3.491777 2.539113,2.065474 4.150206,4.263514 6.122623,6.409945 0.39732,-0.289305 0.7455,-1.270228 1.05265,-2.82205 6.05774,5.876876 14.61711,20.679099 2.20038,26.548251 C 94.361291,58.306934 81.741537,51.97251 67.755376,47.220244 85.733197,56.488956 96.183707,63.986985 101.90936,70.372836 98.977159,82.12499 83.680644,82.660965 78.087562,82.331278 c 1.145228,-0.533067 2.10081,-1.171258 2.439643,-2.152322 -1.403479,-0.997429 -6.380003,-0.104899 -9.854178,-2.056723 1.334577,-0.276487 1.959044,-0.546287 2.583304,-1.531172 -3.282344,-1.046877 -6.818254,-1.948704 -8.897647,-3.682979 1.122165,0.01386 2.169854,0.251071 3.635437,-0.765329 -2.939963,-1.584375 -6.076793,-2.840249 -8.514209,-5.26221 1.520088,-0.03721 3.158944,-0.01461 3.635437,-0.573609 -2.690929,-1.667055 -4.961246,-3.521175 -6.840409,-5.549016 2.127244,0.256783 3.025618,0.03564 3.539835,-0.334862 -2.034062,-2.08338 -4.60884,-3.842626 -5.836336,-6.409945 1.579459,0.544376 3.024947,0.752531 4.066419,-0.04806 -0.691189,-1.55931 -3.652956,-2.478767 -5.357813,-6.122624 1.662737,0.161231 3.426369,0.362772 3.779098,0 -0.773194,-3.145516 -2.097351,-4.913366 -3.396175,-6.744808 3.558657,-0.05284 8.950187,0.01406 8.705928,-0.286804 l -2.200383,-2.248442 c 3.475996,-0.935895 7.032847,0.150155 9.614918,0.956531 1.159368,-0.914844 -0.02053,-2.071405 -1.435055,-3.252514 2.954063,0.3944 5.623298,1.073103 8.0362,2.008663 1.289151,-1.16399 -0.837059,-2.327788 -1.865518,-3.491777 4.563893,0.865867 6.497031,2.082398 8.418607,3.300574 1.394182,-1.336357 0.07992,-2.472045 -0.860927,-3.635437 z m 67.933832,0 c -0.94084,1.163392 -2.25511,2.29908 -0.86093,3.635437 1.92158,-1.218176 3.85472,-2.434707 8.41861,-3.300574 -1.02846,1.163989 -3.15467,2.327787 -1.86552,3.491777 2.4129,-0.93556 5.08266,-1.614263 8.03672,-2.008663 -1.41452,1.181109 -2.59442,2.33767 -1.43505,3.252514 2.58207,-0.806376 6.1384,-1.892426 9.6144,-0.956531 l -2.20038,2.248442 c -0.24426,0.300862 5.14778,0.233959 8.70644,0.286804 -1.29882,1.831441 -2.6235,3.599292 -3.39669,6.744808 0.35273,0.362772 2.11636,0.161231 3.7791,0 -1.70486,3.643857 -4.66611,4.563314 -5.3573,6.122624 1.04147,0.80059 2.48644,0.592435 4.0659,0.04806 -1.22749,2.567319 -3.80176,4.326565 -5.83582,6.409945 0.51422,0.370506 1.41259,0.591645 3.53984,0.334862 -1.87916,2.027841 -4.14948,3.881961 -6.84041,5.549016 0.47649,0.558993 2.11535,0.5364 3.63543,0.573609 -2.43741,2.421961 -5.57475,3.677835 -8.51472,5.26221 1.46558,1.0164 2.51327,0.779193 3.63544,0.765329 -2.0794,1.734275 -5.61531,2.636102 -8.89765,3.682979 0.62426,0.984885 1.24873,1.254685 2.5833,1.531172 -3.47417,1.951824 -8.4507,1.059294 -9.85418,2.056723 0.33884,0.981064 1.29442,1.619255 2.43965,2.152322 -5.59308,0.329687 -20.8896,-0.206288 -23.8218,-11.958442 5.72565,-6.385851 16.17668,-13.88388 34.1545,-23.152592 -13.98616,4.752267 -26.60643,11.08669 -37.16827,19.80396 -12.41673,-5.869152 -3.85736,-20.671375 2.20038,-26.548251 0.30714,1.551822 0.65533,2.532745 1.05265,2.82205 1.97242,-2.146431 3.58351,-4.344471 6.12262,-6.409945 0.008,1.213105 -0.60267,2.529238 0.90899,3.491777 1.36115,-1.859163 3.20141,-3.518527 5.64462,-4.926831 -1.17681,2.060144 -0.20221,2.686011 0.43046,3.539835 1.86605,-1.624518 3.63859,-3.269915 7.07967,-4.544426 z m -35.17046,48.409964 c 0.30902,-0.007 0.61855,-0.0065 0.92863,0.0016 8.8048,-0.09704 19.70649,6.569696 19.66288,12.850894 -0.0385,5.543968 -7.65638,10.032198 -19.59519,9.946678 -11.69089,-0.13962 -19.563953,-5.63956 -19.536272,-11.011729 0.02207,-4.283088 8.960262,-11.570753 18.539952,-11.787394 z m -29.033369,3.740857 c 1.968222,-0.03663 4.002635,0.116247 6.080768,0.467156 C 97.418906,88.095326 61.940366,119.0753 61.39349,112.16408 60.906263,96.389966 71.436199,86.855679 85.213741,86.599235 Z m 58.096709,0.529166 c 13.77755,0.256445 24.30696,9.790732 23.81974,25.564849 -0.54688,6.91121 -36.02542,-24.068757 -29.90102,-25.097693 2.07813,-0.350908 4.11306,-0.50379 6.08128,-0.467156 z m -7.19904,19.243269 a 22.788476,19.314276 55.965774 0 1 1.92908,0.032 22.788476,19.314276 55.965774 0 1 14.39757,40.72826 22.788476,19.314276 55.965774 0 1 -25.12663,-38.02352 22.788476,19.314276 55.965774 0 1 8.79998,-2.73678 z m -41.303423,1.07539 a 19.314276,22.788476 34.034226 0 1 8.417573,2.71973 19.314276,22.788476 34.034226 1 1 -25.126629,38.02352 19.314276,22.788476 34.034226 0 1 14.397569,-40.72827 19.314276,22.788476 34.034226 0 1 2.311487,-0.015 z m 74.295203,11.63546 c 0.27025,-0.004 0.55572,0.0325 0.8568,0.11317 15.98518,9.12822 13.2082,29.43857 4.58628,36.37401 -7.59333,3.3733 -13.82058,-36.3483 -5.44308,-36.48718 z m -109.614493,0.52917 c 8.377508,0.13888 2.15025,39.86047 -5.443078,36.48718 -8.621916,-6.93544 -11.398903,-27.24579 4.586283,-36.37401 0.301081,-0.0807 0.586553,-0.11765 0.856795,-0.11317 z m 56.479243,27.4252 a 21.534467,19.857445 0 0 1 21.25503,19.85615 21.534603,19.857571 0 0 1 -43.069205,0 21.534467,19.857445 0 0 1 18.469675,-19.65565 21.534467,19.857445 0 0 1 3.3445,-0.2005 z m 47.31597,7.39231 c 1.68207,-0.0438 3.25644,0.42836 4.6762,1.52652 3.82306,3.80812 6.06555,18.15345 -0.62735,26.74307 -9.21715,12.78926 -21.69482,13.28724 -26.3431,9.72499 -4.86156,-4.5861 -1.15065,-18.82322 5.51336,-26.62886 5.7193,-6.45779 11.73468,-11.23418 16.78089,-11.36572 z m -97.341861,3.03858 c 0.222028,-0.005 0.445892,-0.002 0.671793,0.008 5.421675,0.23241 11.91265,4.521 17.213937,10.67222 6.159262,7.42043 8.966729,20.45737 3.82664,24.30032 -4.862822,2.93366 -16.672023,1.72572 -25.065653,-10.33219 -5.660774,-10.11811 -4.931021,-20.41451 -0.95653,-23.43939 1.300187,-0.79202 2.75562,-1.17679 4.309813,-1.20871 z M 115.7819,193.0222 c 8.6512,-0.37759 20.25922,2.78671 20.28197,6.98406 0.14359,4.07596 -10.52765,13.28474 -20.8561,13.1067 -10.69638,0.46141 -21.185275,-8.762 -21.047805,-11.95896 -0.160089,-4.68734 13.024815,-8.34689 21.621935,-8.1318 z" />
  </g>
</svg>
