%TF.GenerationSoftware,KiCad,Pcbnew,(6.0.7-1)-1*%
%TF.CreationDate,2024-01-28T18:10:20-08:00*%
%TF.ProjectId,SensorPod-Board,53656e73-6f72-4506-9f64-2d426f617264,rev?*%
%TF.SameCoordinates,Original*%
%TF.FileFunction,Soldermask,Bot*%
%TF.FilePolarity,Negative*%
%FSLAX46Y46*%
G04 Gerber Fmt 4.6, Leading zero omitted, Abs format (unit mm)*
G04 Created by KiCad (PCBNEW (6.0.7-1)-1) date 2024-01-28 18:10:20*
%MOMM*%
%LPD*%
G01*
G04 APERTURE LIST*
G04 Aperture macros list*
%AMRoundRect*
0 Rectangle with rounded corners*
0 $1 Rounding radius*
0 $2 $3 $4 $5 $6 $7 $8 $9 X,Y pos of 4 corners*
0 Add a 4 corners polygon primitive as box body*
4,1,4,$2,$3,$4,$5,$6,$7,$8,$9,$2,$3,0*
0 Add four circle primitives for the rounded corners*
1,1,$1+$1,$2,$3*
1,1,$1+$1,$4,$5*
1,1,$1+$1,$6,$7*
1,1,$1+$1,$8,$9*
0 Add four rect primitives between the rounded corners*
20,1,$1+$1,$2,$3,$4,$5,0*
20,1,$1+$1,$4,$5,$6,$7,0*
20,1,$1+$1,$6,$7,$8,$9,0*
20,1,$1+$1,$8,$9,$2,$3,0*%
G04 Aperture macros list end*
%ADD10C,2.400000*%
%ADD11R,2.400000X2.400000*%
%ADD12C,1.600000*%
%ADD13O,1.600000X1.600000*%
%ADD14C,2.500000*%
%ADD15O,3.500000X3.500000*%
%ADD16R,2.000000X1.905000*%
%ADD17O,2.000000X1.905000*%
%ADD18RoundRect,0.250000X-0.600000X-0.750000X0.600000X-0.750000X0.600000X0.750000X-0.600000X0.750000X0*%
%ADD19O,1.700000X2.000000*%
%ADD20R,1.600000X1.600000*%
%ADD21RoundRect,0.250000X-0.600000X-0.725000X0.600000X-0.725000X0.600000X0.725000X-0.600000X0.725000X0*%
%ADD22O,1.700000X1.950000*%
%ADD23R,1.050000X1.500000*%
%ADD24O,1.050000X1.500000*%
%ADD25R,1.700000X1.700000*%
%ADD26O,1.700000X1.700000*%
%ADD27O,1.500000X1.500000*%
%ADD28O,1.800000X1.800000*%
%ADD29RoundRect,0.250000X0.600000X0.725000X-0.600000X0.725000X-0.600000X-0.725000X0.600000X-0.725000X0*%
%ADD30RoundRect,0.102000X-0.825000X0.825000X-0.825000X-0.825000X0.825000X-0.825000X0.825000X0.825000X0*%
%ADD31C,1.854000*%
G04 APERTURE END LIST*
D10*
%TO.C,C1*%
X118286041Y-52705000D03*
D11*
X113286041Y-52705000D03*
%TD*%
D12*
%TO.C,R1*%
X102235000Y-127000000D03*
D13*
X102235000Y-134620000D03*
%TD*%
D14*
%TO.C,REF\u002A\u002A*%
X147637500Y-51533750D03*
%TD*%
D12*
%TO.C,C3*%
X117475000Y-63620000D03*
X117475000Y-66120000D03*
%TD*%
D14*
%TO.C,REF\u002A\u002A*%
X93027500Y-130471250D03*
%TD*%
%TO.C,REF\u002A\u002A*%
X93027500Y-51533750D03*
%TD*%
D12*
%TO.C,R3*%
X93980000Y-83820000D03*
D13*
X93980000Y-76200000D03*
%TD*%
D15*
%TO.C,U3*%
X94740000Y-66160000D03*
D16*
X111400000Y-68700000D03*
D17*
X111400000Y-66160000D03*
X111400000Y-63620000D03*
%TD*%
D18*
%TO.C,J4*%
X100985000Y-52180000D03*
D19*
X103485000Y-52180000D03*
%TD*%
D20*
%TO.C,D2*%
X124460000Y-66675000D03*
D13*
X124460000Y-59055000D03*
%TD*%
D21*
%TO.C,J1*%
X127735000Y-52180000D03*
D22*
X130235000Y-52180000D03*
X132735000Y-52180000D03*
X135235000Y-52180000D03*
X137735000Y-52180000D03*
X140235000Y-52180000D03*
%TD*%
D12*
%TO.C,C2*%
X117475000Y-70735000D03*
X117475000Y-73235000D03*
%TD*%
D23*
%TO.C,Q1*%
X97860000Y-80460000D03*
D24*
X99130000Y-80460000D03*
X100400000Y-80460000D03*
%TD*%
D18*
%TO.C,J3*%
X147340000Y-62975000D03*
D19*
X149840000Y-62975000D03*
%TD*%
D25*
%TO.C,J5*%
X106224286Y-83820000D03*
D26*
X108764286Y-83820000D03*
X111304286Y-83820000D03*
%TD*%
D12*
%TO.C,R2*%
X120015000Y-127000000D03*
D13*
X120015000Y-134620000D03*
%TD*%
D27*
%TO.C,U1*%
X134150900Y-76820000D03*
X139000900Y-76820000D03*
D28*
X133850900Y-73790000D03*
X139300900Y-73790000D03*
D26*
X127685900Y-73660000D03*
X127685900Y-76200000D03*
D25*
X127685900Y-78740000D03*
D26*
X127685900Y-81280000D03*
X127685900Y-83820000D03*
X127685900Y-86360000D03*
X127685900Y-88900000D03*
D25*
X127685900Y-91440000D03*
D26*
X127685900Y-93980000D03*
X127685900Y-96520000D03*
X127685900Y-99060000D03*
X127685900Y-101600000D03*
D25*
X127685900Y-104140000D03*
D26*
X127685900Y-106680000D03*
X127685900Y-109220000D03*
X127685900Y-111760000D03*
X127685900Y-114300000D03*
D25*
X127685900Y-116840000D03*
D26*
X127685900Y-119380000D03*
X127685900Y-121920000D03*
X145465900Y-121920000D03*
X145465900Y-119380000D03*
D25*
X145465900Y-116840000D03*
D26*
X145465900Y-114300000D03*
X145465900Y-111760000D03*
X145465900Y-109220000D03*
X145465900Y-106680000D03*
D25*
X145465900Y-104140000D03*
D26*
X145465900Y-101600000D03*
X145465900Y-99060000D03*
X145465900Y-96520000D03*
X145465900Y-93980000D03*
D25*
X145465900Y-91440000D03*
D26*
X145465900Y-88900000D03*
X145465900Y-86360000D03*
X145465900Y-83820000D03*
X145465900Y-81280000D03*
D25*
X145465900Y-78740000D03*
D26*
X145465900Y-76200000D03*
X145465900Y-73660000D03*
X137160000Y-103390000D03*
D25*
X139700000Y-103390000D03*
D26*
X142240000Y-103390000D03*
%TD*%
D14*
%TO.C,REF\u002A\u002A*%
X147637500Y-130471250D03*
%TD*%
D20*
%TO.C,D1*%
X127735000Y-66675000D03*
D13*
X127735000Y-59055000D03*
%TD*%
D29*
%TO.C,J2*%
X114875000Y-131445000D03*
D22*
X112375000Y-131445000D03*
X109875000Y-131445000D03*
X107375000Y-131445000D03*
%TD*%
D30*
%TO.C,U2*%
X117145000Y-90170000D03*
D31*
X117145000Y-92710000D03*
X117145000Y-95250000D03*
X117145000Y-97790000D03*
X117145000Y-100330000D03*
X117145000Y-102870000D03*
X117145000Y-105410000D03*
%TD*%
M02*
