M48
; DRILL file {KiCad (6.0.7-1)-1} date 
; FORMAT={-:-/ absolute / inch / decimal}
; #@! TF.CreationDate,2024-01-28T18:10:17-08:00
; #@! TF.GenerationSoftware,Kicad,Pcbnew,(6.0.7-1)-1
; #@! TF.FileFunction,MixedPlating,1,2
FMAT,2
INCH
; #@! TA.AperFunction,Plated,PTH,ComponentDrill
T1C0.0295
; #@! TA.AperFunction,Plated,PTH,ComponentDrill
T2C0.0315
; #@! TA.AperFunction,Plated,PTH,ComponentDrill
T3C0.0374
; #@! TA.AperFunction,Plated,PTH,ComponentDrill
T4C0.0394
; #@! TA.AperFunction,Plated,PTH,ComponentDrill
T5C0.0402
; #@! TA.AperFunction,Plated,PTH,ComponentDrill
T6C0.0433
; #@! TA.AperFunction,Plated,PTH,ComponentDrill
T7C0.0472
; #@! TA.AperFunction,NonPlated,NPTH,ComponentDrill
T8C0.0591
; #@! TA.AperFunction,NonPlated,NPTH,ComponentDrill
T9C0.0709
; #@! TA.AperFunction,NonPlated,NPTH,ComponentDrill
T10C0.0984
; #@! TA.AperFunction,NonPlated,NPTH,ComponentDrill
T11C0.1378
%
G90
G05
T1
X3.8528Y-3.1677
X3.9028Y-3.1677
X3.9528Y-3.1677
T2
X3.7Y-3.0
X3.7Y-3.3
X4.025Y-5.0
X4.025Y-5.3
X4.625Y-2.5047
X4.625Y-2.6031
X4.625Y-2.7848
X4.625Y-2.8833
X4.725Y-5.0
X4.725Y-5.3
X4.9Y-2.325
X4.9Y-2.625
X5.0289Y-2.325
X5.0289Y-2.625
T3
X4.2274Y-5.175
X4.3258Y-5.175
X4.4242Y-5.175
X4.5226Y-5.175
X5.0289Y-2.0543
X5.1274Y-2.0543
X5.2258Y-2.0543
X5.3242Y-2.0543
X5.4226Y-2.0543
X5.5211Y-2.0543
T4
X3.9758Y-2.0543
X4.0742Y-2.0543
X4.1821Y-3.3
X4.2821Y-3.3
X4.3821Y-3.3
X5.8008Y-2.4793
X5.8992Y-2.4793
T5
X5.027Y-2.9
X5.027Y-3.0
X5.027Y-3.1
X5.027Y-3.2
X5.027Y-3.3
X5.027Y-3.4
X5.027Y-3.5
X5.027Y-3.6
X5.027Y-3.7
X5.027Y-3.8
X5.027Y-3.9
X5.027Y-4.0
X5.027Y-4.1
X5.027Y-4.2
X5.027Y-4.3
X5.027Y-4.4
X5.027Y-4.5
X5.027Y-4.6
X5.027Y-4.7
X5.027Y-4.8
X5.4Y-4.0705
X5.5Y-4.0705
X5.6Y-4.0705
X5.727Y-2.9
X5.727Y-3.0
X5.727Y-3.1
X5.727Y-3.2
X5.727Y-3.3
X5.727Y-3.4
X5.727Y-3.5
X5.727Y-3.6
X5.727Y-3.7
X5.727Y-3.8
X5.727Y-3.9
X5.727Y-4.0
X5.727Y-4.1
X5.727Y-4.2
X5.727Y-4.3
X5.727Y-4.4
X5.727Y-4.5
X5.727Y-4.6
X5.727Y-4.7
X5.727Y-4.8
T6
X4.3858Y-2.5047
X4.3858Y-2.6047
X4.3858Y-2.7047
X4.612Y-3.55
X4.612Y-3.65
X4.612Y-3.75
X4.612Y-3.85
X4.612Y-3.95
X4.612Y-4.05
X4.612Y-4.15
T7
X4.4601Y-2.075
X4.6569Y-2.075
T8
X5.2815Y-3.0244
X5.4725Y-3.0244
T9
X5.2697Y-2.9051
X5.4843Y-2.9051
T10
X3.6625Y-2.0289
X3.6625Y-5.1367
X5.8125Y-2.0289
X5.8125Y-5.1367
T11
X3.7299Y-2.6047
T0
M30
